<?xml version="1.0" standalone="no"?>
<!DOCTYPE svg PUBLIC "-//W3C//DTD SVG 20010904//EN"
 "http://www.w3.org/TR/2001/REC-SVG-20010904/DTD/svg10.dtd">
<svg version="1.0" xmlns="http://www.w3.org/2000/svg"
 width="640.000000pt" height="1280.000000pt" viewBox="0 0 640.000000 1280.000000"
 preserveAspectRatio="xMidYMid meet">
<metadata>
Created by potrace 1.15, written by Peter Selinger 2001-2017
</metadata>
<g transform="translate(0.000000,1280.000000) scale(0.100000,-0.100000)"
fill="#000000" stroke="none">
<path d="M2526 12781 c-26 -29 -22 -93 13 -194 32 -94 59 -242 47 -254 -13
-13 -33 24 -66 125 -18 53 -43 114 -57 135 -34 49 -169 177 -188 177 -20 0
-38 -37 -31 -63 3 -12 37 -56 75 -97 l70 -75 27 -112 c15 -62 25 -115 22 -119
-13 -13 -31 11 -73 100 -36 74 -58 105 -114 159 -38 37 -76 67 -84 67 -48 0
-30 -74 34 -145 40 -43 56 -71 75 -130 13 -42 24 -82 24 -90 0 -27 -15 -15
-40 33 -27 51 -140 145 -169 140 -17 -3 -26 -38 -17 -72 3 -11 24 -32 46 -46
44 -26 82 -87 94 -150 4 -19 13 -113 21 -209 15 -188 19 -198 88 -239 27 -16
27 -17 27 -127 0 -60 -3 -147 -7 -192 l-6 -83 -41 0 c-23 0 -71 -3 -108 -7
l-68 -6 0 -151 c0 -83 5 -223 10 -311 5 -88 14 -257 20 -375 12 -243 11 -231
74 -475 104 -399 154 -554 225 -700 74 -154 206 -379 341 -581 87 -130 88
-131 80 -175 -5 -24 -32 -165 -60 -314 -62 -326 -85 -448 -110 -580 -10 -55
-28 -147 -39 -205 -11 -58 -40 -197 -65 -310 -51 -234 -177 -806 -209 -954
l-21 -99 23 -65 c33 -94 126 -281 162 -324 17 -21 39 -38 51 -38 33 0 83 29
155 89 l68 57 54 -33 c30 -18 59 -37 64 -42 6 -6 -8 -59 -36 -138 -52 -144
-111 -327 -187 -578 -29 -93 -136 -411 -240 -705 -239 -681 -281 -811 -319
-996 -38 -185 -84 -356 -189 -704 -239 -792 -362 -1323 -329 -1417 7 -20 -29
-59 -296 -325 -167 -167 -311 -314 -319 -328 -19 -29 -32 -101 -24 -127 7 -21
30 -34 174 -98 166 -73 235 -80 360 -33 98 37 189 147 232 280 15 48 24 53 59
32 37 -22 153 -12 181 16 25 25 40 105 40 218 0 97 0 97 30 114 84 48 242 525
478 1443 l70 270 466 984 c256 542 467 986 469 987 1 1 40 -5 86 -14 66 -13
85 -20 92 -36 4 -12 22 -100 38 -196 17 -96 105 -598 197 -1115 91 -517 165
-965 165 -995 -2 -165 -52 -1144 -62 -1197 -14 -81 -5 -133 36 -193 31 -46 33
-54 36 -158 4 -102 6 -113 42 -185 44 -89 68 -109 142 -115 l53 -4 4 -48 c10
-100 97 -214 206 -269 70 -35 276 -91 334 -91 24 0 62 9 86 20 48 22 72 64 72
125 0 80 -125 315 -256 480 -38 48 -97 124 -130 168 l-62 81 19 36 c22 41 44
216 84 670 33 375 48 729 40 970 -11 340 -10 479 4 710 7 124 14 323 15 442 1
192 3 219 19 236 33 36 33 57 -9 472 -6 60 -5 64 10 50 9 -9 44 -70 79 -135
45 -86 72 -126 96 -142 82 -55 85 -23 16 154 -228 588 -225 574 -148 586 l38
6 79 233 c43 128 147 438 231 688 l152 455 7 230 c18 649 19 724 7 851 -53
555 -93 904 -112 976 -16 63 -197 209 -534 433 -224 149 -285 179 -342 171
l-44 -6 -29 66 c-27 60 -90 247 -90 267 0 5 7 6 16 3 13 -5 15 -1 10 20 -4 15
-10 40 -13 56 l-6 29 39 -16 c67 -30 132 -46 166 -43 l33 3 -55 37 c-50 34
-100 90 -100 113 0 5 12 -3 28 -17 34 -33 96 -60 187 -82 39 -9 76 -19 83 -21
6 -2 12 0 12 5 0 5 -9 12 -20 15 -33 10 -135 144 -160 209 -8 23 -3 21 63 -24
39 -27 73 -47 75 -45 2 2 -7 19 -21 37 -66 88 -71 131 -51 400 16 225 12 289
-27 356 -10 18 -19 36 -19 40 0 11 80 -71 122 -126 22 -29 42 -51 45 -49 11
12 -103 298 -152 383 -28 48 -87 93 -171 130 -62 27 -100 30 -148 10 -33 -14
-34 -14 -70 30 -31 36 -48 47 -104 63 -115 34 -203 44 -253 30 l-44 -12 37 -7
c35 -6 118 -55 118 -69 0 -3 -57 -6 -128 -7 -70 0 -181 -8 -247 -18 -137 -21
-277 -18 -340 8 l-40 16 33 -28 c18 -16 68 -48 112 -72 43 -25 77 -46 75 -48
-6 -6 -71 17 -184 64 -57 25 -106 42 -110 39 -3 -3 30 -40 73 -81 43 -42 76
-77 74 -79 -5 -6 -99 30 -165 64 -35 17 -63 28 -63 25 0 -40 117 -137 221
-183 42 -19 43 -20 19 -29 -61 -23 -212 -55 -285 -61 l-80 -6 75 -40 c134 -71
181 -89 243 -89 31 0 57 -2 57 -4 0 -1 -9 -15 -20 -30 -29 -39 -51 -141 -48
-216 l3 -64 48 55 c26 30 47 52 47 49 0 -3 -11 -40 -25 -82 -37 -113 -36 -117
24 -86 56 30 66 27 51 -12 -22 -60 -12 -122 51 -294 75 -208 92 -262 84 -270
-3 -3 -45 7 -93 22 -104 34 -128 56 -298 277 -195 253 -213 283 -223 369 -13
102 -49 509 -71 805 -40 523 -38 510 -62 532 -19 17 -20 25 -13 193 l8 175 93
98 c85 90 100 111 157 230 68 140 129 218 187 239 38 13 38 21 -3 52 -43 33
-105 35 -153 5 -18 -11 -54 -51 -79 -90 -43 -64 -69 -89 -94 -89 -16 0 -50
119 -57 200 -7 91 -28 201 -56 295 -20 70 -87 215 -99 215 -3 0 -14 -9 -23
-19z"/>
</g>
</svg>
