<?xml version="1.0" standalone="no"?>
<!DOCTYPE svg PUBLIC "-//W3C//DTD SVG 20010904//EN"
 "http://www.w3.org/TR/2001/REC-SVG-20010904/DTD/svg10.dtd">
<svg version="1.0" xmlns="http://www.w3.org/2000/svg"
 width="1280.000000pt" height="994.000000pt" viewBox="0 0 1280.000000 994.000000"
 preserveAspectRatio="xMidYMid meet">
<metadata>
Created by potrace 1.15, written by Peter Selinger 2001-2017
</metadata>
<g transform="translate(0.000000,994.000000) scale(0.100000,-0.100000)"
fill="#000000" stroke="none">
<path d="M7956 9919 c-19 -15 -26 -30 -26 -54 0 -36 36 -75 70 -75 34 0 70 39
70 75 0 36 -36 75 -70 75 -10 0 -29 -9 -44 -21z"/>
<path d="M3825 9765 c-14 -13 -25 -36 -25 -50 0 -33 42 -75 75 -75 33 0 75 42
75 75 0 33 -42 75 -75 75 -14 0 -37 -11 -50 -25z"/>
<path d="M5825 9715 c-14 -13 -25 -36 -25 -50 0 -14 11 -37 25 -50 13 -14 36
-25 50 -25 14 0 37 11 50 25 14 13 25 36 25 50 0 14 -11 37 -25 50 -13 14 -36
25 -50 25 -14 0 -37 -11 -50 -25z"/>
<path d="M1856 9619 c-59 -46 -5 -148 64 -122 26 10 30 9 30 -7 0 -33 39 -70
75 -70 24 0 39 7 54 26 26 33 26 54 1 86 -25 32 -52 39 -84 22 -25 -12 -26
-12 -26 16 0 19 -9 35 -26 49 -34 27 -54 26 -88 0z"/>
<path d="M2910 9562 c-27 -8 -60 -45 -60 -67 0 -38 37 -75 75 -75 36 0 75 36
75 70 0 40 -54 83 -90 72z"/>
<path d="M1700 9490 c-43 -43 -11 -120 50 -120 38 0 70 32 70 70 0 38 -32 70
-70 70 -17 0 -39 -9 -50 -20z"/>
<path d="M2510 9362 c-27 -8 -60 -45 -60 -67 0 -38 37 -75 75 -75 36 0 75 36
75 70 0 40 -54 83 -90 72z"/>
<path d="M5675 9215 c-14 -13 -25 -36 -25 -50 0 -32 41 -75 72 -75 38 1 78 44
78 85 0 25 -46 65 -75 65 -14 0 -37 -11 -50 -25z"/>
<path d="M8453 9109 c-25 -9 -53 -46 -53 -70 0 -33 39 -69 75 -69 24 0 39 7
54 26 26 33 26 54 1 86 -23 30 -47 38 -77 27z"/>
<path d="M5602 9067 c-31 -33 -29 -80 4 -106 15 -12 34 -21 44 -21 33 0 70 39
70 74 0 66 -75 99 -118 53z"/>
<path d="M1202 8867 c-27 -28 -29 -78 -4 -99 28 -25 79 -48 107 -48 36 0 65
33 65 74 0 37 -10 48 -67 77 -49 25 -75 24 -101 -4z"/>
<path d="M11452 8670 c-32 -30 -30 -82 4 -109 15 -12 34 -21 44 -21 33 0 70
39 70 74 0 64 -72 98 -118 56z"/>
<path d="M3880 8613 c-51 -19 -68 -85 -30 -123 45 -45 120 -11 120 53 0 47
-49 85 -90 70z"/>
<path d="M10451 8608 c-52 -19 -65 -68 -30 -112 15 -19 30 -26 54 -26 24 0 39
7 54 26 26 33 26 54 1 86 -23 30 -47 38 -79 26z"/>
<path d="M5801 8558 c-52 -19 -65 -68 -30 -112 15 -19 30 -26 54 -26 24 0 39
7 54 26 26 33 26 54 1 86 -23 30 -47 38 -79 26z"/>
<path d="M8425 8515 c-39 -38 -30 -86 23 -114 41 -22 102 18 102 66 0 32 -43
73 -75 73 -14 0 -37 -11 -50 -25z"/>
<path d="M6352 8320 c-32 -30 -30 -82 5 -110 71 -55 156 47 90 108 -29 28 -67
28 -95 2z"/>
<path d="M11780 8313 c-51 -19 -68 -85 -30 -123 45 -45 120 -11 120 53 0 47
-49 85 -90 70z"/>
<path d="M52 8267 c-45 -48 -16 -120 48 -120 65 0 95 76 47 121 -30 28 -68 28
-95 -1z"/>
<path d="M5480 8263 c-51 -19 -68 -85 -30 -123 45 -45 120 -11 120 53 0 47
-49 85 -90 70z"/>
<path d="M9630 8213 c-51 -19 -68 -85 -30 -123 43 -43 120 -11 120 49 0 48
-49 88 -90 74z"/>
<path d="M11480 8163 c-51 -19 -68 -85 -30 -123 42 -42 120 -10 120 49 0 48
-50 88 -90 74z"/>
<path d="M1725 8115 c-39 -38 -30 -86 23 -114 41 -22 102 18 102 66 0 32 -43
73 -75 73 -14 0 -37 -11 -50 -25z"/>
<path d="M25 8015 c-39 -38 -30 -86 23 -114 41 -22 102 18 102 66 0 32 -43 73
-75 73 -14 0 -37 -11 -50 -25z"/>
<path d="M5402 7820 c-47 -44 -16 -123 48 -123 65 0 95 76 47 121 -29 28 -67
28 -95 2z"/>
<path d="M4202 7770 c-29 -27 -29 -80 -2 -105 46 -42 120 -10 120 51 0 40 -32
74 -70 74 -14 0 -36 -9 -48 -20z"/>
<path d="M5720 7757 c-35 -18 -50 -53 -38 -88 27 -78 138 -57 138 25 0 53 -53
87 -100 63z"/>
<path d="M10820 7757 c-35 -18 -50 -53 -38 -88 27 -78 138 -57 138 25 0 53
-53 87 -100 63z"/>
<path d="M11421 7664 c-34 -44 -24 -86 27 -113 43 -23 102 20 102 75 0 8 -11
26 -25 39 -33 34 -77 33 -104 -1z"/>
<path d="M6980 7663 c-51 -19 -68 -85 -30 -123 44 -44 120 -10 120 54 0 46
-49 84 -90 69z"/>
<path d="M10195 7658 c-48 -28 -57 -70 -24 -112 27 -34 71 -35 104 -1 14 13
25 31 25 39 0 31 -24 65 -53 76 -16 5 -30 10 -31 10 -1 0 -10 -6 -21 -12z"/>
<path d="M11821 7614 c-34 -44 -24 -86 27 -113 43 -23 102 20 102 75 0 8 -11
26 -25 39 -33 34 -77 33 -104 -1z"/>
<path d="M643 7608 c-12 -6 -27 -24 -34 -41 -10 -24 -10 -34 2 -56 20 -36 63
-50 97 -30 54 30 52 102 -5 128 -28 13 -31 13 -60 -1z"/>
<path d="M375 7565 c-40 -39 -30 -86 23 -114 43 -23 102 20 102 75 0 24 -47
64 -75 64 -14 0 -37 -11 -50 -25z"/>
<path d="M3352 7520 c-29 -27 -29 -80 -2 -105 46 -42 120 -10 120 51 0 40 -32
74 -70 74 -14 0 -36 -9 -48 -20z"/>
<path d="M6300 7420 c-26 -26 -26 -81 0 -105 46 -42 120 -10 120 51 0 64 -76
98 -120 54z"/>
<path d="M9337 7297 c-24 -37 -82 -157 -110 -228 l-26 -66 25 -104 c32 -130
28 -209 -11 -209 -32 0 -68 -47 -63 -82 4 -23 1 -27 -12 -23 -10 3 -57 -19
-116 -55 -54 -33 -103 -60 -109 -60 -5 0 -21 19 -34 43 -79 138 -244 258 -410
297 -76 18 -223 16 -301 -5 -139 -36 -285 -140 -363 -258 -108 -163 -124 -377
-42 -554 65 -141 149 -226 307 -312 87 -47 128 -89 128 -131 0 -68 -6 -70
-197 -41 -68 10 -123 16 -123 14 0 -2 19 -24 41 -48 53 -56 73 -85 65 -93 -4
-3 -43 -16 -89 -30 -163 -47 -187 -66 -201 -164 -6 -38 -17 -56 -61 -102 -29
-31 -61 -56 -71 -56 -10 0 -27 -9 -39 -20 -11 -12 -55 -43 -97 -71 -95 -61
-232 -190 -291 -272 -52 -73 -88 -142 -151 -292 -78 -185 -118 -258 -153 -280
-148 -92 -203 -130 -200 -138 2 -6 59 -32 127 -59 68 -26 127 -54 132 -61 15
-24 9 -87 -9 -94 -51 -18 -70 -77 -38 -119 8 -10 15 -25 15 -33 0 -20 63 -111
102 -147 44 -41 64 -47 98 -29 42 22 60 19 60 -8 0 -29 23 -62 38 -53 6 4 21
37 33 75 29 91 22 139 -36 227 -55 84 -60 99 -42 127 21 33 45 113 66 219 15
78 26 106 60 156 23 34 51 87 63 117 17 44 29 59 63 80 25 14 56 45 75 75 18
27 36 50 41 50 5 0 85 74 178 165 92 91 173 165 179 165 6 0 16 -26 22 -57 7
-32 27 -97 46 -144 l34 -86 0 -193 0 -192 -44 -81 c-58 -106 -196 -402 -253
-542 -25 -60 -54 -128 -65 -149 -17 -33 -18 -43 -7 -62 10 -19 9 -27 -5 -49
-9 -14 -14 -35 -11 -47 3 -13 -8 -90 -25 -173 -17 -82 -42 -204 -56 -270 -14
-72 -39 -152 -60 -200 -120 -264 -271 -565 -285 -565 -10 0 -17 38 -24 135 -4
44 -9 88 -11 97 -5 16 -3 16 23 3 49 -26 103 6 103 61 0 79 -100 102 -137 31
-8 -15 -16 -2 -43 70 -19 48 -85 212 -148 363 -63 151 -118 285 -123 297 -7
20 -1 28 51 65 33 23 60 45 60 49 0 3 -24 33 -53 66 -117 131 -189 237 -362
533 l-108 184 6 100 c8 156 35 219 178 423 138 197 199 334 200 453 1 54 -5
73 -49 163 -58 118 -63 138 -63 223 0 141 87 237 381 419 289 178 438 295 472
370 16 36 2 87 -38 134 -47 54 -84 79 -294 196 -310 173 -409 238 -589 394
-106 91 -120 95 -222 65 -89 -25 -107 -34 -119 -63 -13 -32 0 -101 29 -160 33
-63 130 -102 319 -126 39 -5 70 -19 120 -53 89 -60 456 -338 472 -356 19 -23
-4 -53 -78 -100 -67 -44 -248 -146 -257 -146 -3 0 -5 14 -5 30 0 17 -9 39 -20
50 -11 11 -33 20 -50 20 -80 0 -97 -118 -20 -142 14 -4 -216 -131 -325 -179
-47 -21 -49 -21 -62 -3 -7 10 -13 44 -13 81 l0 63 35 0 c24 0 37 6 45 19 14
28 12 109 -4 167 -10 33 -14 94 -14 184 2 151 -11 213 -65 313 -60 114 -153
165 -319 174 -131 8 -166 -6 -252 -98 -105 -111 -133 -182 -191 -478 -17 -89
-39 -167 -66 -230 -66 -155 -30 -159 -316 39 -136 95 -254 178 -262 185 -18
17 -3 36 142 183 279 282 514 411 750 412 71 0 116 16 139 48 8 12 25 19 45
19 57 0 89 51 67 108 -8 19 -75 55 -104 55 -12 0 -69 16 -128 36 -139 46 -151
43 -258 -68 -71 -75 -94 -91 -219 -157 -444 -234 -535 -285 -598 -338 -16 -12
-32 -23 -37 -23 -4 0 -33 37 -63 83 -65 99 -78 111 -114 104 -21 -4 -42 4 -85
33 -73 48 -196 99 -257 107 -40 5 -56 1 -93 -21 -38 -22 -56 -26 -127 -26
l-82 0 -68 -64 c-49 -46 -81 -68 -112 -76 -73 -19 -76 -20 -103 -41 -31 -24
-35 -69 -10 -117 20 -41 9 -60 -55 -102 -28 -17 -53 -40 -56 -51 -4 -11 5 -49
20 -88 27 -68 27 -70 11 -117 -21 -62 -20 -87 3 -132 36 -70 61 -85 141 -83
71 1 85 -5 52 -26 -27 -16 -52 -75 -52 -120 0 -45 30 -98 61 -108 24 -8 72 22
77 49 2 10 -7 5 -27 -15 -26 -26 -34 -28 -52 -19 -47 26 -61 121 -24 176 23
36 39 29 65 -27 15 -34 34 -58 56 -71 24 -14 35 -29 40 -55 9 -46 0 -119 -21
-170 l-16 -41 -65 29 c-100 46 -175 62 -223 49 -40 -10 -81 -50 -81 -77 0 -8
-13 -28 -30 -43 -35 -33 -38 -67 -10 -103 19 -24 19 -33 10 -388 -5 -200 -10
-377 -10 -393 l0 -29 -187 6 c-119 4 -214 12 -258 23 -38 9 -82 18 -97 21
l-27 5 40 -121 c22 -67 37 -126 34 -130 -2 -5 -21 -17 -42 -26 l-37 -18 -21
28 c-106 147 -144 177 -227 183 -90 7 -94 -10 -11 -52 72 -36 123 -84 123
-116 0 -10 -9 -28 -19 -41 l-20 -24 -46 25 c-46 25 -46 25 -61 5 -14 -18 -12
-22 19 -51 38 -35 188 -93 245 -96 20 0 56 2 79 6 43 8 43 8 43 -22 0 -42 -16
-82 -48 -116 l-27 -29 37 6 c59 9 290 104 468 193 185 93 276 148 307 188 12
14 25 26 31 26 18 0 170 -158 180 -188 13 -38 -8 -87 -87 -195 -100 -139 -111
-146 -429 -290 -294 -133 -423 -206 -593 -334 -215 -162 -210 -155 -269 -437
-19 -95 -37 -157 -50 -173 -22 -28 -26 -63 -10 -79 14 -14 -106 -654 -131
-694 -11 -17 -9 2 26 323 l24 219 -35 126 c-71 261 -115 366 -346 823 -157
310 -218 454 -218 512 0 18 14 55 30 82 16 28 30 64 30 82 0 17 -18 86 -40
152 -57 174 -83 341 -99 631 -10 180 -4 301 17 322 16 16 80 -19 101 -56 9
-15 45 -69 80 -120 35 -50 86 -124 113 -164 67 -99 83 -105 152 -59 31 20 148
125 261 232 113 108 205 189 205 181 0 -26 38 -56 70 -56 20 0 39 9 53 24 19
20 29 23 74 19 60 -6 116 20 153 69 l22 30 -53 54 c-29 29 -51 55 -48 58 2 2
36 21 74 42 82 43 158 93 200 131 25 22 30 34 30 72 1 25 4 56 8 67 8 21 4 27
-38 62 -8 7 -15 26 -15 42 0 42 -33 73 -70 65 -26 -6 -28 -3 -37 32 -9 37 -10
38 -55 37 -86 -1 -161 -72 -219 -209 -29 -68 -73 -135 -89 -135 -6 0 -28 16
-49 36 l-40 35 -60 -30 -60 -31 25 -72 24 -72 -49 -46 c-59 -55 -186 -145
-235 -165 -48 -20 -89 -19 -118 5 -27 21 -81 118 -122 219 -14 35 -34 69 -43
76 -10 8 -15 17 -11 21 4 4 13 2 20 -3 21 -16 113 -16 126 -1 16 20 4 33 -59
62 -65 31 -125 89 -183 177 -24 37 -56 71 -76 82 -43 23 -110 87 -110 104 0 9
18 13 63 13 l62 0 34 56 c36 60 53 73 76 54 13 -10 17 -7 30 23 8 20 21 73 29
120 21 116 41 161 94 207 47 42 72 50 72 25 0 -8 4 -23 9 -33 5 -9 13 -30 17
-47 19 -63 101 -71 133 -13 13 23 13 30 -1 64 -9 22 -19 52 -23 68 -4 18 -15
32 -33 38 l-28 11 24 49 c48 102 37 205 -35 307 -63 89 -150 138 -328 183
-149 38 -357 9 -520 -72 -97 -48 -161 -110 -206 -200 -30 -59 -33 -73 -33
-151 1 -129 16 -171 91 -247 46 -48 70 -84 92 -135 16 -39 27 -76 24 -83 -6
-16 -76 -44 -111 -44 -18 0 -44 14 -72 38 l-44 37 -116 0 c-109 0 -118 2 -185
33 -65 31 -70 32 -82 16 -19 -27 -16 -53 12 -90 l24 -32 -60 -38 c-66 -42 -74
-55 -149 -243 -22 -57 -50 -115 -61 -129 -10 -14 -19 -37 -19 -52 0 -14 -11
-60 -25 -100 -14 -41 -24 -78 -23 -82 2 -4 65 22 141 59 76 36 140 63 142 61
10 -10 -186 -916 -210 -975 -28 -68 -57 -26 -44 61 6 33 8 64 6 70 -3 7 -28
24 -57 40 l-52 28 -43 -42 c-24 -23 -53 -47 -66 -54 -12 -6 -26 -24 -31 -41
-10 -36 -58 -332 -58 -359 0 -46 128 -130 173 -113 8 3 23 31 32 62 10 30 21
58 25 60 12 8 110 -46 121 -67 7 -13 7 -40 0 -88 -6 -38 -11 -84 -11 -103 l0
-34 89 -17 c49 -9 95 -16 102 -16 36 -1 39 -15 19 -72 -10 -30 -22 -84 -26
-119 -12 -125 30 -399 101 -649 103 -364 170 -674 170 -790 0 -75 -4 -92 -30
-144 -35 -70 -155 -186 -226 -218 -37 -16 -52 -30 -63 -57 -8 -20 -47 -74 -86
-121 -39 -47 -107 -130 -150 -186 l-79 -101 51 -169 c70 -234 274 -764 298
-772 17 -6 174 8 188 17 7 4 17 33 22 64 33 206 242 821 548 1612 18 49 19 54
1 285 -37 480 -60 839 -57 864 3 29 0 35 340 -599 119 -221 234 -435 256 -476
l42 -75 -29 -59 c-15 -33 -102 -184 -193 -335 -240 -398 -311 -548 -402 -842
-46 -150 -119 -428 -114 -433 11 -10 836 -55 1006 -55 120 0 152 6 122 25 -21
13 2 23 69 29 l70 7 6 57 c9 74 36 136 70 158 24 16 30 16 54 3 34 -19 68 -90
77 -161 l7 -58 93 0 c51 0 95 4 98 8 4 8 1 61 -20 326 l-7 89 136 -7 c111 -6
137 -5 137 6 0 15 -27 191 -100 657 l-50 324 0 337 c0 283 2 339 14 343 18 7
432 275 692 447 108 72 198 129 201 126 6 -5 -28 -71 -140 -276 -134 -245
-241 -464 -276 -562 -40 -117 -43 -152 -77 -1077 -8 -233 -13 -425 -10 -428 2
-3 64 -8 138 -11 l133 -7 -91 -33 c-53 -19 -101 -43 -115 -58 -22 -24 -24 -33
-24 -137 l0 -112 205 -3 c113 -2 219 0 236 3 30 5 31 7 36 68 9 110 61 179
122 163 33 -8 53 -47 67 -134 6 -39 15 -76 20 -84 6 -9 36 -14 94 -17 l85 -3
0 38 c0 22 -5 104 -11 183 -9 125 -8 146 6 161 14 15 14 20 0 54 -31 75 -18
95 87 132 26 9 49 23 52 31 8 19 -25 115 -79 229 -39 84 -41 92 -22 85 28 -11
61 2 81 31 21 30 20 50 -5 82 -30 38 -81 36 -110 -4 l-22 -29 -62 132 c-142
303 -170 403 -162 577 13 254 92 429 349 771 184 247 235 324 267 413 23 63
26 87 26 201 0 130 0 130 -37 205 -48 97 -110 166 -224 251 -51 38 -98 78
-104 89 -19 35 14 180 61 271 12 24 19 59 19 93 0 30 4 57 9 60 12 8 107 -95
231 -248 58 -71 135 -165 171 -210 98 -121 389 -537 389 -556 0 -9 -9 -75 -20
-146 -25 -171 -36 -460 -18 -493 8 -16 31 -30 63 -41 l50 -17 7 -199 c7 -197
23 -457 35 -544 l6 -45 -25 23 c-34 31 -81 29 -107 -4 -24 -31 -26 -43 -10
-78 22 -46 93 -51 125 -8 11 15 13 7 14 -51 l0 -68 -35 7 c-19 3 -35 2 -35 -2
0 -5 7 -117 15 -249 20 -320 20 -745 1 -745 -29 0 -66 -41 -66 -74 0 -36 34
-76 65 -76 17 0 18 -9 13 -150 l-6 -150 39 -12 c54 -16 40 -23 -17 -9 -25 7
-48 10 -51 7 -2 -2 10 -31 26 -65 l31 -61 60 0 60 0 31 61 c16 34 29 63 26 65
-2 2 -25 -3 -50 -12 -26 -9 -52 -13 -59 -11 -8 3 -6 6 4 6 34 2 77 152 119
412 13 86 27 146 34 144 5 -1 23 -8 38 -15 60 -29 123 28 98 88 -16 37 -60 59
-89 43 -28 -15 -31 -14 -26 7 11 46 54 455 64 597 5 88 17 374 25 635 9 261
18 476 20 478 2 3 95 -3 206 -13 142 -12 237 -15 323 -10 l123 7 18 -29 c10
-15 86 -120 168 -232 159 -217 213 -307 245 -411 34 -109 35 -129 10 -139 -23
-8 -23 -9 -23 -267 l0 -259 -47 -227 c-47 -225 -62 -270 -112 -337 -32 -43
-32 -48 1 -83 20 -21 27 -40 31 -83 4 -50 3 -55 -16 -55 -25 0 -62 -45 -62
-75 0 -29 43 -68 76 -68 18 0 36 10 52 29 l24 28 -2 -50 c-2 -27 -2 -56 -1
-66 1 -21 51 -38 112 -38 46 0 49 2 75 45 14 25 28 45 31 45 3 0 22 -14 41
-32 83 -72 277 -138 417 -140 86 -2 125 11 125 41 0 19 -46 70 -87 98 -12 8
-27 31 -34 51 -6 20 -21 47 -32 60 l-21 23 54 -3 55 -3 5 220 6 220 87 325
c48 179 94 370 102 425 17 117 39 229 54 268 6 15 39 76 73 135 87 151 143
273 172 377 49 171 134 314 230 384 l54 40 334 -333 c183 -183 355 -351 381
-372 l49 -40 -11 -39 c-32 -123 -43 -234 -51 -530 -8 -328 -15 -381 -89 -698
-12 -48 -21 -99 -21 -114 l0 -26 94 7 95 7 5 -33 c3 -18 8 -64 12 -103 3 -38
10 -77 14 -86 9 -16 136 -46 148 -35 3 4 18 28 32 53 47 87 66 83 131 -29 29
-49 50 -73 77 -87 95 -47 294 -55 349 -15 62 46 34 94 -91 155 -44 22 -89 47
-99 57 -30 26 -69 92 -64 107 3 6 25 15 49 19 23 4 53 13 65 21 19 13 20 19
12 47 -27 96 -203 964 -239 1183 -36 219 -51 268 -116 385 -26 47 -95 185
-154 307 l-108 221 37 16 c77 33 192 76 204 76 11 -1 78 -78 85 -98 1 -4 -11
-13 -27 -20 -50 -22 -58 -87 -17 -122 24 -19 72 -17 95 5 20 17 21 16 37 -19
10 -20 21 -36 25 -36 20 0 79 89 136 206 35 73 85 160 111 193 47 61 68 76 58
44 -9 -33 -26 -238 -27 -338 -1 -94 0 -100 24 -121 22 -18 87 -40 178 -58 24
-5 33 -21 79 -138 113 -289 173 -455 178 -494 6 -58 -50 -256 -212 -751 -73
-224 -137 -427 -140 -449 -6 -35 -2 -52 25 -108 63 -129 167 -231 262 -257 23
-6 74 -9 113 -7 58 4 83 11 135 41 139 78 302 234 301 290 0 12 -16 46 -36 75
-71 106 -147 430 -149 637 -1 136 8 191 64 357 49 147 50 187 5 423 -30 154
-53 296 -71 433 -3 27 0 34 18 41 35 13 220 32 228 24 11 -12 317 -530 345
-585 13 -25 28 -65 33 -87 17 -78 -5 -244 -69 -515 -85 -363 -110 -526 -126
-808 l-7 -127 -25 19 c-32 26 -55 25 -88 -3 -33 -29 -35 -69 -4 -103 27 -28
65 -31 92 -7 17 15 18 13 18 -55 0 -71 0 -72 26 -72 25 0 26 1 20 53 l-6 52
25 -47 c21 -41 30 -48 55 -48 35 0 50 23 50 74 0 53 29 75 75 57 11 -5 30 -4
43 0 28 11 62 -24 119 -120 20 -35 43 -70 51 -77 18 -18 73 -18 98 1 25 19 38
19 30 0 -8 -22 190 -22 221 0 50 35 31 124 -32 150 -22 10 -35 22 -35 34 0 22
26 31 93 31 58 0 58 1 17 130 -47 146 -107 403 -125 525 -8 61 -21 190 -29
288 l-14 178 29 29 c16 15 29 37 29 48 0 24 -37 72 -56 72 -8 0 -14 8 -14 18
0 47 -33 345 -45 410 -18 93 -78 229 -265 602 -121 240 -152 310 -165 375 -26
122 -90 353 -145 520 -109 334 -155 541 -175 800 l-7 80 76 -110 c113 -165
232 -300 410 -465 218 -202 259 -252 412 -497 52 -84 100 -155 106 -159 6 -4
19 3 29 15 l17 21 6 -27 c2 -16 8 -158 11 -318 l7 -290 48 -200 c26 -110 53
-233 60 -274 9 -54 13 -291 14 -844 l1 -769 95 -38 c52 -21 103 -41 113 -44
17 -5 17 -8 1 -43 -37 -83 -74 -200 -74 -238 0 -53 30 -99 82 -127 35 -18 60
-22 133 -23 98 0 155 19 177 59 8 14 12 92 13 236 l0 215 28 13 c15 7 27 16
27 20 0 101 -67 766 -95 937 -39 246 -45 306 -33 350 6 22 14 110 19 195 4 85
11 180 14 210 5 41 3 66 -9 95 -26 61 -30 174 -12 330 8 77 20 201 26 275 6
74 12 136 14 137 1 2 17 -17 35 -42 53 -74 125 -238 180 -410 28 -88 60 -178
70 -200 19 -40 19 -16 20 1968 1 1200 -3 2007 -8 2007 -17 0 -106 -77 -178
-153 -83 -90 -123 -162 -123 -223 0 -37 5 -47 33 -68 18 -14 59 -37 90 -51 47
-22 57 -31 59 -53 2 -39 2 -39 -6 -129 l-6 -83 30 0 c46 0 27 -17 -25 -23 -89
-10 -129 -78 -194 -332 -79 -311 -92 -339 -393 -854 -145 -249 -168 -293 -168
-327 0 -25 1 -26 56 -22 l56 3 -7 -60 c-3 -33 -8 -61 -9 -63 -2 -1 -32 -7 -67
-13 -115 -19 -244 10 -339 75 -52 35 -183 163 -225 220 -25 33 -27 39 -13 47
8 5 21 21 27 37 26 62 -29 118 -92 94 -17 -7 -34 -8 -38 -4 -4 4 -45 75 -90
157 -160 291 -199 351 -245 381 -22 15 -203 40 -306 43 -10 1 -18 5 -18 9 0 5
25 42 55 82 30 40 53 75 51 77 -2 2 -74 -25 -159 -61 -86 -37 -163 -66 -172
-66 -12 0 -15 12 -15 56 0 48 4 59 29 85 l29 29 45 -17 c61 -23 91 -9 119 54
25 58 21 148 -10 209 l-21 41 30 77 c40 103 79 252 79 301 0 58 -25 149 -62
225 -37 76 -169 215 -236 249 -24 12 -105 36 -180 53 -248 56 -398 43 -515
-46 -48 -37 -137 -156 -199 -268 -23 -43 -47 -78 -52 -78 -15 0 1 178 25 269
15 58 20 100 16 133 -5 43 -4 50 18 64 18 12 25 25 25 48 -1 42 -32 109 -61
130 -27 18 -80 21 -96 5 -21 -21 -20 7 3 86 34 116 30 171 -9 112z m-304 -907
c83 -32 82 -31 54 -86 -13 -27 -37 -87 -52 -134 -15 -47 -57 -144 -94 -216
-79 -155 -121 -247 -121 -261 0 -19 -99 -101 -135 -113 -44 -14 -70 -7 -34 10
31 14 59 59 59 93 0 25 26 65 111 170 28 34 59 78 69 97 63 122 79 284 45 439
-7 33 -6 34 19 27 15 -4 50 -15 79 -26z m375 -274 c13 -65 80 -180 136 -235
23 -22 70 -62 106 -88 46 -35 64 -55 63 -69 -16 -122 -15 -182 5 -226 61 -138
170 -75 175 100 1 40 3 72 4 72 2 0 26 -17 54 -39 28 -21 75 -47 105 -57 l54
-18 0 -76 0 -77 -227 -12 c-126 -7 -230 -15 -233 -17 -2 -3 2 -9 10 -14 8 -5
49 -30 90 -56 71 -45 73 -48 50 -57 -100 -42 -141 -67 -197 -122 -48 -48 -65
-73 -77 -115 -10 -33 -37 -291 -71 -681 -30 -345 -60 -650 -66 -677 -20 -94
-161 -204 -267 -208 -67 -3 -101 -29 -94 -73 4 -27 1 -31 -34 -40 -86 -21
-105 -23 -121 -9 -53 44 -213 230 -213 248 0 12 18 52 39 89 189 323 293 575
346 835 34 167 34 314 -1 541 -44 293 -44 282 7 367 23 40 59 94 79 119 22 28
44 72 54 110 10 35 35 107 56 159 48 119 90 259 90 298 0 32 33 82 54 82 8 0
18 -22 24 -54z m-3017 -143 c16 -42 13 -123 -4 -141 -20 -19 -47 -9 -47 18 0
24 31 150 36 150 3 0 9 -12 15 -27z m-1626 -93 c92 -84 189 -154 367 -266 84
-53 159 -102 165 -108 10 -9 6 -22 -21 -61 -116 -171 -332 -356 -524 -450 -33
-16 -61 -33 -61 -36 -1 -8 56 -24 193 -54 161 -34 198 -46 446 -135 321 -117
430 -160 431 -173 9 -101 -54 -271 -138 -375 -35 -43 -37 -44 -82 -37 -129 19
-390 127 -504 208 -65 46 -175 157 -246 247 -67 85 -117 178 -156 290 -20 58
-47 124 -61 147 -31 53 -114 113 -212 153 -138 56 -153 63 -150 77 2 7 45 49
97 93 70 59 101 80 123 80 35 0 64 28 77 77 14 51 14 60 -6 114 -30 87 10 167
117 233 30 19 60 34 66 35 7 1 42 -26 79 -59z m5795 -2 c34 -75 22 -205 -20
-228 -27 -15 -66 -12 -80 5 -9 11 -8 27 9 77 11 35 25 85 31 113 10 44 25 75
37 75 2 0 13 -19 23 -42z m-682 -259 c6 -89 -34 -179 -78 -179 -57 0 -103 120
-81 212 18 79 22 81 94 49 l62 -28 3 -54z m-5377 -12 c0 -62 -11 -91 -42 -108
-36 -19 -41 2 -18 77 12 38 26 77 31 88 16 30 29 4 29 -57z m5416 -1029 c163
-219 253 -376 253 -443 0 -34 -53 -172 -106 -278 -117 -234 -261 -419 -304
-392 -50 31 -50 423 0 906 26 248 40 339 54 339 2 0 48 -60 103 -132z m-867
-1356 c0 -5 -12 -19 -26 -33 l-26 -24 -19 24 c-10 12 -16 27 -13 32 7 11 84
12 84 1z m-6656 -2133 c12 -11 -20 -47 -63 -72 l-31 -18 -10 26 c-12 31 -13
69 -3 79 9 8 95 -3 107 -15z"/>
<path d="M8975 4045 c-39 -39 -32 -86 17 -111 24 -12 36 -13 58 -4 27 11 50
46 50 76 0 24 -47 64 -75 64 -14 0 -37 -11 -50 -25z"/>
<path d="M4656 5799 c-49 -38 -20 -129 41 -129 36 0 73 38 73 75 0 36 -36 75
-70 75 -10 0 -29 -9 -44 -21z"/>
<path d="M2969 7287 c-9 -7 -21 -23 -28 -35 -23 -43 20 -102 75 -102 24 0 64
47 64 75 0 53 -71 93 -111 62z"/>
<path d="M3349 7219 c-17 -17 -20 -30 -16 -65 3 -31 1 -44 -8 -44 -21 0 -45
-36 -45 -68 0 -65 75 -95 120 -47 19 20 22 32 17 65 -4 28 -1 40 7 40 22 0 46
35 46 68 0 63 -77 95 -121 51z"/>
<path d="M4171 7214 c-24 -30 -26 -61 -7 -86 32 -43 103 -38 125 8 16 35 14
47 -10 78 -15 19 -30 26 -54 26 -24 0 -39 -7 -54 -26z"/>
<path d="M12044 7108 c-54 -26 -55 -98 -2 -127 34 -20 77 -6 97 30 19 33 1 81
-35 98 -29 13 -32 13 -60 -1z"/>
<path d="M7030 6813 c-76 -28 -60 -143 20 -143 56 0 93 86 53 122 -22 19 -53
28 -73 21z"/>
<path d="M7194 6708 c-54 -26 -55 -98 -2 -127 34 -20 77 -6 97 30 19 33 1 81
-35 98 -29 13 -32 13 -60 -1z"/>
<path d="M971 6514 c-28 -35 -26 -65 3 -94 34 -31 74 -29 103 4 28 33 29 56 2
90 -15 19 -30 26 -54 26 -24 0 -39 -7 -54 -26z"/>
<path d="M11771 6414 c-45 -58 -6 -123 69 -115 21 3 60 48 60 70 0 34 -39 71
-75 71 -24 0 -39 -7 -54 -26z"/>
<path d="M11275 5395 c-14 -13 -25 -36 -25 -50 0 -32 41 -75 72 -75 53 0 91
58 67 103 -28 52 -76 61 -114 22z"/>
<path d="M7525 5295 c-14 -13 -25 -36 -25 -50 0 -14 11 -37 25 -50 13 -14 36
-25 50 -25 14 0 37 11 50 25 14 13 25 36 25 50 0 14 -11 37 -25 50 -13 14 -36
25 -50 25 -14 0 -37 -11 -50 -25z"/>
<path d="M2102 4297 c-31 -33 -29 -80 4 -106 15 -12 34 -21 44 -21 33 0 70 39
70 74 0 66 -75 99 -118 53z"/>
<path d="M6575 4245 c-14 -13 -25 -36 -25 -50 0 -32 41 -75 72 -75 38 1 78 44
78 85 0 25 -46 65 -75 65 -14 0 -37 -11 -50 -25z"/>
<path d="M3029 3788 c-25 -8 -49 -44 -49 -72 0 -7 9 -25 21 -40 15 -19 30 -26
54 -26 24 0 39 7 54 26 26 33 26 54 1 86 -23 31 -46 38 -81 26z"/>
<path d="M2452 3697 c-31 -33 -29 -80 4 -106 15 -12 34 -21 44 -21 33 0 70 39
70 74 0 66 -75 99 -118 53z"/>
<path d="M5049 3438 c-25 -8 -49 -44 -49 -72 0 -7 9 -25 21 -40 15 -19 30 -26
54 -26 24 0 39 7 54 26 26 33 26 54 1 86 -23 31 -46 38 -81 26z"/>
<path d="M2475 3295 c-40 -39 -30 -86 23 -114 43 -23 102 20 102 75 0 24 -47
64 -75 64 -14 0 -37 -11 -50 -25z"/>
<path d="M10602 2950 c-48 -45 -18 -123 47 -123 66 0 96 76 48 121 -29 28 -67
28 -95 2z"/>
<path d="M9625 2795 c-39 -38 -30 -86 23 -114 41 -22 102 18 102 66 0 32 -43
73 -75 73 -14 0 -37 -11 -50 -25z"/>
<path d="M1552 2750 c-29 -27 -29 -80 -2 -105 46 -42 120 -10 120 51 0 40 -32
74 -70 74 -14 0 -36 -9 -48 -20z"/>
<path d="M7152 2650 c-29 -27 -29 -80 -2 -105 46 -42 120 -10 120 51 0 40 -32
74 -70 74 -14 0 -36 -9 -48 -20z"/>
<path d="M4671 2544 c-34 -44 -24 -86 27 -113 43 -23 102 20 102 75 0 8 -11
26 -25 39 -33 34 -77 33 -104 -1z"/>
<path d="M5880 2543 c-53 -19 -68 -86 -28 -123 46 -43 118 -10 118 54 0 46
-49 84 -90 69z"/>
<path d="M9721 2494 c-34 -44 -24 -86 27 -113 43 -23 102 20 102 75 0 8 -11
26 -25 39 -33 34 -77 33 -104 -1z"/>
<path d="M8271 2244 c-34 -43 -24 -86 26 -112 43 -23 103 20 103 74 0 8 -11
26 -25 39 -33 34 -77 33 -104 -1z"/>
<path d="M4630 2143 c-76 -28 -60 -143 20 -143 56 0 93 86 53 122 -22 19 -53
28 -73 21z"/>
<path d="M4950 1850 c-26 -26 -26 -81 0 -105 46 -42 120 -10 120 52 0 42 -30
73 -70 73 -17 0 -39 -9 -50 -20z"/>
<path d="M6306 1829 c-52 -41 -22 -129 44 -129 35 0 70 38 70 77 0 34 -38 73
-70 73 -10 0 -29 -9 -44 -21z"/>
<path d="M10550 1800 c-26 -26 -26 -81 0 -105 29 -26 79 -24 102 4 39 50 9
121 -52 121 -17 0 -39 -9 -50 -20z"/>
<path d="M1200 1650 c-26 -26 -26 -81 0 -105 46 -42 120 -10 120 52 0 42 -30
73 -70 73 -17 0 -39 -9 -50 -20z"/>
<path d="M3321 644 c-12 -15 -21 -34 -21 -44 0 -34 39 -70 75 -70 36 0 75 36
75 70 0 34 -39 70 -75 70 -24 0 -39 -7 -54 -26z"/>
<path d="M11706 529 c-14 -11 -26 -27 -26 -35 0 -8 -11 -19 -24 -24 -27 -10
-56 -47 -56 -71 0 -9 10 -28 21 -43 30 -38 85 -34 114 9 10 17 33 40 50 50 43
29 47 84 9 114 -34 26 -54 27 -88 0z"/>
<path d="M9456 279 c-19 -15 -26 -30 -26 -54 0 -36 36 -75 70 -75 34 0 70 39
70 75 0 36 -36 75 -70 75 -10 0 -29 -9 -44 -21z"/>
<path d="M10775 275 c-14 -13 -25 -36 -25 -50 0 -14 11 -37 25 -50 60 -61 150
7 111 84 -25 48 -73 55 -111 16z"/>
<path d="M5550 200 c-43 -43 -11 -120 50 -120 38 0 70 32 70 70 0 38 -32 70
-70 70 -17 0 -39 -9 -50 -20z"/>
<path d="M11150 200 c-43 -43 -11 -120 50 -120 38 0 70 32 70 70 0 38 -32 70
-70 70 -17 0 -39 -9 -50 -20z"/>
<path d="M7575 175 c-32 -31 -32 -69 0 -100 48 -49 119 -19 119 50 0 69 -71
99 -119 50z"/>
<path d="M10504 127 c-17 -15 -26 -33 -26 -52 0 -32 41 -75 71 -75 34 0 71 39
71 75 0 24 -7 39 -26 54 -34 27 -57 26 -90 -2z"/>
</g>
</svg>
