<?xml version="1.0" standalone="no"?>
<svg xmlns:xlink="http://www.w3.org/1999/xlink" id="wave" style="transform:rotate(0deg); transition: 0.3s" viewBox="0 0 1440 490" version="1.1" xmlns="http://www.w3.org/2000/svg"><defs><linearGradient id="sw-gradient-0" x1="0" x2="0" y1="1" y2="0"><stop stop-color="rgba(132.089, 232.65, 184.953, 1)" offset="0%"/><stop stop-color="rgba(243.022, 167.807, 248.587, 1)" offset="100%"/></linearGradient></defs><path style="transform:translate(0, 0px); opacity:1" fill="url(#sw-gradient-0)" d="M0,196L21.8,212.3C43.6,229,87,261,131,261.3C174.5,261,218,229,262,187.8C305.5,147,349,98,393,81.7C436.4,65,480,82,524,73.5C567.3,65,611,33,655,49C698.2,65,742,131,785,138.8C829.1,147,873,98,916,122.5C960,147,1004,245,1047,277.7C1090.9,310,1135,278,1178,261.3C1221.8,245,1265,245,1309,253.2C1352.7,261,1396,278,1440,277.7C1483.6,278,1527,261,1571,236.8C1614.5,212,1658,180,1702,163.3C1745.5,147,1789,147,1833,138.8C1876.4,131,1920,114,1964,155.2C2007.3,196,2051,294,2095,285.8C2138.2,278,2182,163,2225,114.3C2269.1,65,2313,82,2356,73.5C2400,65,2444,33,2487,81.7C2530.9,131,2575,261,2618,277.7C2661.8,294,2705,196,2749,204.2C2792.7,212,2836,327,2880,383.8C2923.6,441,2967,441,3011,392C3054.5,343,3098,245,3120,196L3141.8,147L3141.8,490L3120,490C3098.2,490,3055,490,3011,490C2967.3,490,2924,490,2880,490C2836.4,490,2793,490,2749,490C2705.5,490,2662,490,2618,490C2574.5,490,2531,490,2487,490C2443.6,490,2400,490,2356,490C2312.7,490,2269,490,2225,490C2181.8,490,2138,490,2095,490C2050.9,490,2007,490,1964,490C1920,490,1876,490,1833,490C1789.1,490,1745,490,1702,490C1658.2,490,1615,490,1571,490C1527.3,490,1484,490,1440,490C1396.4,490,1353,490,1309,490C1265.5,490,1222,490,1178,490C1134.5,490,1091,490,1047,490C1003.6,490,960,490,916,490C872.7,490,829,490,785,490C741.8,490,698,490,655,490C610.9,490,567,490,524,490C480,490,436,490,393,490C349.1,490,305,490,262,490C218.2,490,175,490,131,490C87.3,490,44,490,22,490L0,490Z"/><defs><linearGradient id="sw-gradient-1" x1="0" x2="0" y1="1" y2="0"><stop stop-color="rgba(152.385, 225.819, 151.162, 1)" offset="0%"/><stop stop-color="rgba(246.31, 123.155, 242.277, 1)" offset="100%"/></linearGradient></defs><path style="transform:translate(0, 50px); opacity:0.9" fill="url(#sw-gradient-1)" d="M0,294L21.8,277.7C43.6,261,87,229,131,204.2C174.5,180,218,163,262,130.7C305.5,98,349,49,393,81.7C436.4,114,480,229,524,302.2C567.3,376,611,408,655,351.2C698.2,294,742,147,785,138.8C829.1,131,873,261,916,334.8C960,408,1004,425,1047,400.2C1090.9,376,1135,310,1178,253.2C1221.8,196,1265,147,1309,122.5C1352.7,98,1396,98,1440,155.2C1483.6,212,1527,327,1571,383.8C1614.5,441,1658,441,1702,441C1745.5,441,1789,441,1833,392C1876.4,343,1920,245,1964,171.5C2007.3,98,2051,49,2095,98C2138.2,147,2182,294,2225,359.3C2269.1,425,2313,408,2356,343C2400,278,2444,163,2487,114.3C2530.9,65,2575,82,2618,138.8C2661.8,196,2705,294,2749,302.2C2792.7,310,2836,229,2880,163.3C2923.6,98,2967,49,3011,98C3054.5,147,3098,294,3120,367.5L3141.8,441L3141.8,490L3120,490C3098.2,490,3055,490,3011,490C2967.3,490,2924,490,2880,490C2836.4,490,2793,490,2749,490C2705.5,490,2662,490,2618,490C2574.5,490,2531,490,2487,490C2443.6,490,2400,490,2356,490C2312.7,490,2269,490,2225,490C2181.8,490,2138,490,2095,490C2050.9,490,2007,490,1964,490C1920,490,1876,490,1833,490C1789.1,490,1745,490,1702,490C1658.2,490,1615,490,1571,490C1527.3,490,1484,490,1440,490C1396.4,490,1353,490,1309,490C1265.5,490,1222,490,1178,490C1134.5,490,1091,490,1047,490C1003.6,490,960,490,916,490C872.7,490,829,490,785,490C741.8,490,698,490,655,490C610.9,490,567,490,524,490C480,490,436,490,393,490C349.1,490,305,490,262,490C218.2,490,175,490,131,490C87.3,490,44,490,22,490L0,490Z"/><defs><linearGradient id="sw-gradient-2" x1="0" x2="0" y1="1" y2="0"><stop stop-color="rgba(139.93, 244.034, 141.752, 1)" offset="0%"/><stop stop-color="rgba(255, 139.019, 235.484, 1)" offset="100%"/></linearGradient></defs><path style="transform:translate(0, 100px); opacity:0.8" fill="url(#sw-gradient-2)" d="M0,343L21.8,326.7C43.6,310,87,278,131,294C174.5,310,218,376,262,359.3C305.5,343,349,245,393,171.5C436.4,98,480,49,524,89.8C567.3,131,611,261,655,310.3C698.2,359,742,327,785,318.5C829.1,310,873,327,916,310.3C960,294,1004,245,1047,220.5C1090.9,196,1135,196,1178,236.8C1221.8,278,1265,359,1309,359.3C1352.7,359,1396,278,1440,245C1483.6,212,1527,229,1571,204.2C1614.5,180,1658,114,1702,81.7C1745.5,49,1789,49,1833,81.7C1876.4,114,1920,180,1964,171.5C2007.3,163,2051,82,2095,65.3C2138.2,49,2182,98,2225,106.2C2269.1,114,2313,82,2356,81.7C2400,82,2444,114,2487,114.3C2530.9,114,2575,82,2618,122.5C2661.8,163,2705,278,2749,277.7C2792.7,278,2836,163,2880,138.8C2923.6,114,2967,180,3011,187.8C3054.5,196,3098,147,3120,122.5L3141.8,98L3141.8,490L3120,490C3098.2,490,3055,490,3011,490C2967.3,490,2924,490,2880,490C2836.4,490,2793,490,2749,490C2705.5,490,2662,490,2618,490C2574.5,490,2531,490,2487,490C2443.6,490,2400,490,2356,490C2312.7,490,2269,490,2225,490C2181.8,490,2138,490,2095,490C2050.9,490,2007,490,1964,490C1920,490,1876,490,1833,490C1789.1,490,1745,490,1702,490C1658.2,490,1615,490,1571,490C1527.3,490,1484,490,1440,490C1396.4,490,1353,490,1309,490C1265.5,490,1222,490,1178,490C1134.5,490,1091,490,1047,490C1003.6,490,960,490,916,490C872.7,490,829,490,785,490C741.8,490,698,490,655,490C610.9,490,567,490,524,490C480,490,436,490,393,490C349.1,490,305,490,262,490C218.2,490,175,490,131,490C87.3,490,44,490,22,490L0,490Z"/></svg>